<svg xmlns="http://www.w3.org/2000/svg" style="background-color:rgb(245,245,245,60%)" width="640" height="232" viewBox="0 0 635 232"><defs><clipPath id="a"><path d="M507.285 118.555H529V138h-21.715Zm0 0"/></clipPath><clipPath id="b"><path d="M564 118.555h31V140h-31Zm0 0"/></clipPath><clipPath id="c"><path d="M411 205h13v18.402h-13Zm0 0"/></clipPath><clipPath id="d"><path d="M411 153h15v18.191h-15Zm0 0"/></clipPath></defs><path style="fill:none;stroke-width:.25;stroke-linecap:round;stroke-linejoin:round;stroke:#000;stroke-opacity:1;stroke-miterlimit:4" d="M7.693 2.346h80.709a5 5 0 0 1 5 5V59.71a5 5 0 0 1-5 5H7.692a5 5 0 0 1-5-5V7.345a5 5 0 0 1 5-5Zm136.063 0h32.52a5 5 0 0 1 5 5V59.71c0 2.762-2.238 5-5 5h-32.52a5 5 0 0 1-5-5V7.345a5 5 0 0 1 5-5Zm0 0" transform="matrix(3.45109 0 0 3.45238 0 0)"/><g clip-path="url(#a)"><path style="stroke:none;fill-rule:nonzero;fill:#000;fill-opacity:1" d="M519.637 122.613c-.219-2.062-.496-3.633-2.418-3.633-2.614 0-4.403 1.872-4.403 2.641 0 .195.164.195.301.195.305 0 1.516-.359 2.008-1.293l.059-.027c1.511 0 1.867.852 2.144 3.684l.383 4.047a113.366 113.366 0 0 0-6.684 4.156c-3.132 2.226-3.191 3.05-3.191 3.851 0 .934.496 1.54 1.32 1.54.828 0 2.094-.907 2.094-1.32 0-.138-.086-.165-.195-.192-.22-.028-.88-.137-.88-1.211 0-.742 0-1.074 2.915-3.028 1.68-1.101 3.273-1.98 4.703-2.89l.469 4.652c.218 2.172.414 3.988 2.449 3.988 2.613 0 4.398-1.87 4.398-2.64 0-.192-.136-.192-.3-.192a2.909 2.909 0 0 0-2.008 1.293l-.274.028c-1.57 0-1.734-1.735-1.953-4.047l-.441-4.457c8.554-5.117 8.554-6.082 8.554-7.235 0-.937-.496-1.543-1.292-1.543-.852 0-2.118.938-2.118 1.32 0 .165.164.196.192.196.218.027.879.137.879 1.207 0 .692-.082 1.102-2.418 2.7-1.278.831-2.57 1.636-3.88 2.421Zm0 0"/></g><path style="stroke:none;fill-rule:nonzero;fill:#000;fill-opacity:1" d="M552.816 131.445c.47 0 .961 0 .961-.55 0-.551-.492-.551-.96-.551h-11.665c.332-3.684 3.496-6.328 7.371-6.328h4.293c.47 0 .961 0 .961-.551 0-.547-.492-.547-.96-.547h-4.348a8.191 8.191 0 0 0-8.442 7.977c0 4.402 3.739 7.98 8.442 7.98h4.347c.47 0 .961 0 .961-.55 0-.552-.492-.552-.96-.552h-4.294c-3.875 0-7.039-2.64-7.37-6.328Zm0 0"/><g clip-path="url(#b)"><path style="stroke:none;fill-rule:nonzero;fill:#000;fill-opacity:1" d="M574.309 122.39c.742 3.579 1.949 9.465 3.52 12.657.605 1.183.905 1.789 1.183 1.789.11 0 .164 0 .66-.496 2.09-2.008 3.52-3.602 5.445-5.805l6.024-7.015a95.707 95.707 0 0 0-1.375 11.75c0 .742.027 1.457.109 2.199.027.304.137 1.101 1.293 1.101s3.246-1.21 3.246-1.761c0-.164-.164-.192-.25-.192-.43.051-.844.203-1.207.442-.66-.086-.715-.524-.773-1.157-.082-.882-.082-1.707-.082-1.816 0-3.055 1.21-11.39 2.007-14.805l.055-.469c0-.109-.027-.41-.219-.41-.11 0-.136.028-.66.633-2.586 3.137-10.617 12.766-13.34 15.078-.687-1.457-1.183-2.504-2.144-6.355a97.213 97.213 0 0 1-1.953-9.246c-.082-.137-.22-.137-.305-.137-.492 0-1.648.605-1.73 1.184a51.527 51.527 0 0 1-2.805 11.199c-2.203 5.86-2.809 5.86-3.328 5.86a3.585 3.585 0 0 1-1.98-.77c-.141-.141-.196-.141-.25-.141-.384 0-.99 1.238-.99 2.012 0 .246 0 .578.88 1.043.46.238.969.37 1.484.386 1.707 0 3.328-3.933 3.88-5.34 1.292-3.109 2.831-7.456 3.605-11.417Zm0 0"/></g><path style="stroke:none;fill-rule:nonzero;fill:#000;fill-opacity:1" d="m390.32 91.75-3.96.3v.856c1.925 0 2.144.192 2.144 1.54v14.308c0 1.238-.3 1.238-2.145 1.238v.852l3.055-.082 3.05.082v-.852c-1.843 0-2.144 0-2.144-1.238ZM406.047 104.957c0-3.52-2.75-6.437-6.078-6.437-3.438 0-6.106 3-6.106 6.437 0 3.55 2.86 6.191 6.078 6.191 3.329 0 6.106-2.695 6.106-6.191m-6.078 5.504a3.574 3.574 0 0 1-3.137-1.844c-.687-1.21-.687-2.887-.687-3.879 0-1.074 0-2.558.66-3.77a3.683 3.683 0 0 1 3.136-1.843c1.282 0 2.461.684 3.11 1.79.715 1.183.715 2.776.715 3.823 0 .992 0 2.477-.606 3.688a3.545 3.545 0 0 1-3.191 2.035ZM412.95 106.113c-2.391 0-2.391-2.75-2.391-3.383 0-.746.027-1.625.437-2.312.223-.332.856-1.102 1.953-1.102 2.395 0 2.395 2.754 2.395 3.387.058.793-.09 1.59-.442 2.309a2.36 2.36 0 0 1-1.953 1.101m-3.187 1.075c0-.11 0-.743.465-1.293.796.558 1.75.859 2.722.851 2.559 0 4.457-1.898 4.457-4.016a3.723 3.723 0 0 0-1.129-2.671 3.607 3.607 0 0 1 2.477-1.07l.277.027c-.304.109-.441.41-.441.742 0 .469.355.797.797.797.277 0 .797-.192.797-.825 0-.367-.149-.718-.414-.972a1.326 1.326 0 0 0-.989-.375 4.226 4.226 0 0 0-2.914 1.293 4.59 4.59 0 0 0-2.918-.992c-2.554 0-4.453 1.898-4.453 4.02 0 1.21.606 2.253 1.293 2.831a3.817 3.817 0 0 0-.855 2.285c0 .852.359 1.899 1.21 2.45-1.648.464-2.53 1.648-2.53 2.75 0 1.98 2.722 3.496 6.081 3.496 3.243 0 6.106-1.407 6.106-3.551a3.526 3.526 0 0 0-1.79-3.137c-1.456-.77-3.054-.77-4.73-.77l-2.062-.027c-.883-.11-1.457-.965-1.457-1.844m3.96 8.696c-2.78 0-4.675-1.406-4.675-2.863 0-1.266 1.043-2.286 2.254-2.368h1.62c2.368 0 5.45 0 5.45 2.368 0 1.484-1.953 2.863-4.648 2.863ZM384.594 48.676c.164-4.102 2.476-4.79 3.41-4.79 2.836 0 3.11 3.716 3.11 4.79h-6.52m-.028.578h7.676c.606 0 .688 0 .688-.578 0-2.727-1.489-5.395-4.926-5.395-3.192 0-5.719 2.836-5.719 6.274 0 3.687 2.887 6.355 6.05 6.355a4.677 4.677 0 0 0 4.595-3.574c0-.277-.223-.332-.36-.332-.246 0-.3.164-.355.387-.965 2.832-3.442 2.832-3.715 2.832-1.375 0-2.477-.825-3.11-1.844-.824-1.32-.824-3.137-.824-4.125ZM401.633 49.14c.824-1.046 1.87-2.394 2.531-3.109a4.205 4.205 0 0 1 3.274-1.43v-.851a31.072 31.072 0 0 1-4.899 0v.852c.578.054.8.414.8.851-.023.36-.171.7-.413.965l-1.707 2.145-2.145-2.778c-.246-.277-.246-.332-.246-.496 0-.414.414-.66.961-.687v-.852c-1.86.113-3.723.113-5.582 0v.852c1.926 0 1.953.027 3.246 1.68l2.723 3.546-2.586 3.277a4.401 4.401 0 0 1-3.52 1.649v.855a29.68 29.68 0 0 1 2.282-.086l2.613.086v-.855c-.606-.082-.797-.441-.797-.852 0-.605.797-1.515 2.477-3.496l2.09 2.754c.218.3.577.742.577.906 0 .246-.25.66-.992.688v.855l2.973-.086c.742 0 1.812.028 2.64.086v-.855c-1.488 0-1.98-.055-2.613-.852ZM412.973 45.262v-1.817l-3.961.301v.856c1.953 0 2.144.164 2.144 1.375v12.878c0 1.239-.3 1.239-2.144 1.239v.851l3.082-.082 3.11.082v-.851c-1.845 0-2.15 0-2.15-1.239v-4.87c.137.437 1.294 1.925 3.384 1.925 3.273 0 6.136-2.695 6.136-6.246 0-3.496-2.668-6.219-5.75-6.219a4.941 4.941 0 0 0-3.851 1.817m.082 7.207v-6.133a4.125 4.125 0 0 1 3.55-2.203c2.008 0 3.684 2.422 3.684 5.531 0 3.328-1.926 5.64-3.96 5.64-1.099 0-2.145-.55-2.888-1.679-.386-.578-.386-.605-.386-1.156ZM395.492 210.77h-.687c-.301 2.808-.688 6.246-5.528 6.246h-2.257c-1.29 0-1.348-.192-1.348-1.102V201.25c0-.938 0-1.32 2.613-1.32h.91v-.856c-.992.086-3.496.086-4.62.086-1.075 0-3.22 0-4.18-.086v.856h.66c2.117 0 2.172.3 2.172 1.293v14.5c0 .992-.055 1.293-2.172 1.293h-.66v.855h14.328ZM409.629 211.98c0-3.52-2.75-6.437-6.078-6.437-3.438 0-6.106 3-6.106 6.437 0 3.551 2.86 6.192 6.078 6.192 3.329 0 6.106-2.695 6.106-6.192m-6.078 5.504a3.574 3.574 0 0 1-3.137-1.843c-.687-1.211-.687-2.887-.687-3.88 0-1.073 0-2.558.66-3.769a3.683 3.683 0 0 1 3.136-1.844c1.282 0 2.465.684 3.11 1.79.715 1.183.715 2.777.715 3.824 0 .992 0 2.476-.606 3.687a3.545 3.545 0 0 1-3.191 2.035Zm0 0"/><g clip-path="url(#c)"><path style="stroke:none;fill-rule:nonzero;fill:#000;fill-opacity:1" d="M416.531 213.137c-2.39 0-2.39-2.75-2.39-3.383 0-.742.027-1.625.441-2.313.219-.332.852-1.101 1.95-1.101 2.394 0 2.394 2.754 2.394 3.387a4.489 4.489 0 0 1-.442 2.308 2.36 2.36 0 0 1-1.953 1.102m-3.187 1.074c0-.11 0-.742.465-1.293.796.559 1.75.86 2.722.852 2.559 0 4.457-1.899 4.457-4.016a3.723 3.723 0 0 0-1.129-2.672 3.607 3.607 0 0 1 2.477-1.07l.277.027c-.304.11-.441.41-.441.742 0 .469.355.797.797.797.277 0 .797-.191.797-.824 0-.367-.149-.719-.414-.973a1.341 1.341 0 0 0-.989-.375 4.226 4.226 0 0 0-2.914 1.293 4.59 4.59 0 0 0-2.918-.992c-2.554 0-4.453 1.898-4.453 4.02 0 1.21.606 2.253 1.293 2.832a3.817 3.817 0 0 0-.855 2.285c0 .851.359 1.898 1.21 2.449-1.648.469-2.53 1.648-2.53 2.75 0 1.98 2.726 3.496 6.081 3.496 3.243 0 6.106-1.402 6.106-3.55a3.526 3.526 0 0 0-1.79-3.137c-1.456-.77-3.054-.77-4.73-.77l-2.062-.027c-.88-.11-1.457-.965-1.457-1.844m3.96 8.695c-2.78 0-4.675-1.402-4.675-2.863 0-1.266 1.043-2.281 2.254-2.367h1.62c2.368 0 5.45 0 5.45 2.367 0 1.488-1.953 2.863-4.648 2.863Zm0 0"/></g><path style="stroke:none;fill-rule:nonzero;fill:#000;fill-opacity:1" d="M381.313 163.938c0 .992-.055 1.292-2.172 1.292h-.66v.852h15.87l1.157-7.098h-.688c-.687 4.239-1.32 6.246-6.05 6.246h-3.66c-1.294 0-1.348-.19-1.348-1.101v-7.344h2.476c2.668 0 2.969.88 2.969 3.219h.688v-7.293h-.688c0 2.367-.3 3.219-2.969 3.219h-2.476v-6.602c0-.91.054-1.101 1.347-1.101h3.547c4.211 0 4.953 1.511 5.39 5.335h.692l-.773-6.19H378.48v.855h.66c2.118 0 2.173.3 2.173 1.293ZM404.188 159.617c.824-1.047 1.87-2.394 2.53-3.11a4.205 4.205 0 0 1 3.274-1.429v-.855a30.16 30.16 0 0 1-4.898 0v.855c.578.055.797.41.797.852-.02.36-.168.699-.41.965l-1.708 2.144-2.144-2.777c-.246-.278-.246-.332-.246-.496 0-.414.41-.66.96-.688v-.855c-1.859.117-3.722.117-5.581 0v.855c1.925 0 1.953.027 3.246 1.676l2.722 3.55-2.585 3.274a4.393 4.393 0 0 1-3.52 1.652v.852a31.792 31.792 0 0 1 2.281-.082l2.614.082v-.852c-.606-.082-.797-.44-.797-.851 0-.606.797-1.516 2.472-3.496l2.094 2.754c.219.3.574.742.574.906 0 .246-.246.66-.988.687v.852l2.969-.082c.746 0 1.816.027 2.64.082v-.852c-1.484 0-1.98-.054-2.613-.851Zm0 0"/><g clip-path="url(#d)"><path style="stroke:none;fill-rule:nonzero;fill:#000;fill-opacity:1" d="M415.54 155.738v-1.816l-3.962.3v.856c1.953 0 2.145.164 2.145 1.375v12.875c0 1.238-.305 1.238-2.145 1.238v.856l3.078-.082 3.11.082v-.856c-1.844 0-2.145 0-2.145-1.238v-4.867c.137.437 1.293 1.926 3.383 1.926 3.273 0 6.133-2.7 6.133-6.246 0-3.496-2.668-6.22-5.75-6.22a4.933 4.933 0 0 0-3.848 1.817m.082 7.207v-6.136a4.123 4.123 0 0 1 3.547-2.2c2.008 0 3.687 2.422 3.687 5.532 0 3.328-1.925 5.64-3.96 5.64-1.102 0-2.149-.55-2.891-1.68-.383-.578-.383-.605-.383-1.156Zm0 0"/></g><path style="fill:none;stroke-width:.5;stroke-linecap:round;stroke-linejoin:round;stroke:#ff2600;stroke-opacity:1;stroke-miterlimit:4" d="M130.524 56.206h-23.146" transform="matrix(3.45109 0 0 3.45238 0 0)"/><path style="fill:none;stroke-width:.5;stroke-linecap:butt;stroke-linejoin:miter;stroke:#ff2600;stroke-opacity:1;stroke-miterlimit:10" d="M103.378 56.206h4m0 1.499-4-1.5 4-1.5" transform="matrix(3.45109 0 0 3.45238 0 0)"/><path style="fill:none;stroke-width:.5;stroke-linecap:round;stroke-linejoin:round;stroke:#0433ff;stroke-opacity:1;stroke-miterlimit:4" d="M102.178 50.535h23.146" transform="matrix(3.45109 0 0 3.45238 0 0)"/><path style="fill:none;stroke-width:.5;stroke-linecap:butt;stroke-linejoin:miter;stroke:#0433ff;stroke-opacity:1;stroke-miterlimit:10" d="M129.324 50.535h-4m0-1.5 4 1.5-4 1.5" transform="matrix(3.45109 0 0 3.45238 0 0)"/><path style="fill:none;stroke-width:.5;stroke-linecap:round;stroke-linejoin:round;stroke:#0433ff;stroke-opacity:1;stroke-miterlimit:4" d="M102.178 19.354h23.146" transform="matrix(3.45109 0 0 3.45238 0 0)"/><path style="fill:none;stroke-width:.5;stroke-linecap:butt;stroke-linejoin:miter;stroke:#0433ff;stroke-opacity:1;stroke-miterlimit:10" d="M129.324 19.354h-4m0-1.5 4 1.5-4 1.5" transform="matrix(3.45109 0 0 3.45238 0 0)"/><path style="fill:none;stroke-width:.5;stroke-linecap:round;stroke-linejoin:round;stroke:#ff2600;stroke-opacity:1;stroke-miterlimit:4" d="M130.524 25.023h-23.146" transform="matrix(3.45109 0 0 3.45238 0 0)"/><path style="fill:none;stroke-width:.5;stroke-linecap:butt;stroke-linejoin:miter;stroke:#ff2600;stroke-opacity:1;stroke-miterlimit:10" d="M103.378 25.023h4m0 1.5-4-1.5 4-1.499" transform="matrix(3.45109 0 0 3.45238 0 0)"/><path style="stroke:none;fill-rule:nonzero;fill:#000;fill-opacity:1" d="M250.965 149.215c0-.086 0-.14-.465-.606-3.438-3.468-4.32-8.668-4.32-12.879 0-4.789 1.047-9.574 4.43-13.015.355-.328.355-.387.355-.469 0-.191-.11-.273-.274-.273-.273 0-2.75 1.87-4.375 5.367a20.006 20.006 0 0 0-1.73 8.39c0 2.145.3 5.477 1.816 8.586a11.882 11.882 0 0 0 4.29 5.172c.163 0 .273-.082.273-.273ZM257.844 135.73a1.458 1.458 0 1 0-2.914 0c0 .797.66 1.458 1.457 1.458s1.457-.66 1.457-1.458ZM268.148 135.73a20.079 20.079 0 0 0-1.812-8.585 11.895 11.895 0 0 0-4.293-5.172c-.164 0-.273.109-.273.273 0 .082 0 .14.52.633 2.698 2.726 4.265 7.101 4.265 12.851 0 4.704-1.02 9.547-4.43 13.016-.355.328-.355.383-.355.469 0 .164.109.273.273.273.277 0 2.75-1.87 4.375-5.367 1.402-3.023 1.73-6.078 1.73-8.39ZM284.09 120.5c.137-.25.137-.29.137-.348a.485.485 0 0 0-.465-.48c-.27 0-.383.152-.54.46l-4.91 9.958-4.925-9.918c-.176-.367-.25-.5-.54-.5a.482.482 0 0 0-.464.48c0 .059 0 .098.137.348l5.273 10.707c.117.215.23.426.5.426s.387-.172.523-.426ZM161.238 149.215c0-.086 0-.14-.468-.606-3.438-3.468-4.317-8.668-4.317-12.879 0-4.789 1.043-9.574 4.43-13.015.355-.328.355-.387.355-.469 0-.191-.11-.273-.273-.273-.278 0-2.754 1.87-4.375 5.367a20.01 20.01 0 0 0-1.735 8.39c0 2.145.305 5.477 1.817 8.586a11.89 11.89 0 0 0 4.293 5.172c.164 0 .273-.082.273-.273ZM168.117 135.73a1.459 1.459 0 1 0-2.918 0c0 .797.66 1.458 1.457 1.458.801 0 1.461-.66 1.461-1.458ZM178.422 135.73a20.082 20.082 0 0 0-1.817-8.585 11.86 11.86 0 0 0-4.289-5.172c-.168 0-.277.109-.277.273 0 .082 0 .14.524.633 2.695 2.726 4.261 7.101 4.261 12.851 0 4.704-1.015 9.547-4.426 13.016-.359.328-.359.383-.359.469 0 .164.11.273.277.273.274 0 2.75-1.87 4.371-5.367 1.403-3.023 1.735-6.078 1.735-8.39ZM189.086 120.094c-.113-.211-.23-.422-.5-.422s-.387.172-.52.422l-5.277 10.71c-.133.25-.133.29-.133.348 0 .309.25.48.461.48.27 0 .387-.155.54-.46l4.91-9.961 4.93 9.922c.171.363.25.5.538.5a.47.47 0 0 0 .461-.48c0-.06 0-.098-.133-.348Zm0 0"/><path style="fill:none;stroke-width:.5;stroke-linecap:round;stroke-linejoin:round;stroke:#0433ff;stroke-opacity:1;stroke-miterlimit:4" d="M59.044 50.535V33.058" transform="matrix(3.45109 0 0 3.45238 0 0)"/><path style="fill:none;stroke-width:.5;stroke-linecap:butt;stroke-linejoin:miter;stroke:#0433ff;stroke-opacity:1;stroke-miterlimit:10" d="M59.044 29.058v4m-1.5 0 1.5-4 1.5 4" transform="matrix(3.45109 0 0 3.45238 0 0)"/><path style="fill:none;stroke-width:.5;stroke-linecap:round;stroke-linejoin:round;stroke:#ff2600;stroke-opacity:1;stroke-miterlimit:4" d="M67.548 27.858v17.478" transform="matrix(3.45109 0 0 3.45238 0 0)"/><path style="fill:none;stroke-width:.5;stroke-linecap:butt;stroke-linejoin:miter;stroke:#ff2600;stroke-opacity:1;stroke-miterlimit:10" d="M67.548 49.335v-4m1.5 0-1.5 4-1.5-4" transform="matrix(3.45109 0 0 3.45238 0 0)"/><path style="stroke:none;fill-rule:nonzero;fill:#000;fill-opacity:1" d="m509.496 22.762-3.625 17.254h2.2l3.019-15.102h.047l2.246 15.102h2.199l8.793-15.102h.047l-3.524 15.102h2.196l3.648-17.254h-3.187l-8.528 14.84h-.05l-2.293-14.84ZM527.996 31.293h2.055c.07-.41.191-.727.41-1.016a3.149 3.149 0 0 1 1.785-1.113 5.778 5.778 0 0 1 2.008-.047c.285.043.562.133.82.266.239.11.446.277.602.484.172.238.258.528.242.82.016.34-.05.68-.191.993a1.176 1.176 0 0 1-.555.554 3.53 3.53 0 0 1-.992.29 60.124 60.124 0 0 0-3.551.386c-.7.086-1.383.274-2.031.559a3.732 3.732 0 0 0-1.52 1.16 3.514 3.514 0 0 0-.582 2.148c0 .653.098 1.211.293 1.645.195.414.473.785.82 1.086a3 3 0 0 0 1.184.582c.488.133.992.195 1.496.191a6.05 6.05 0 0 0 2.563-.457 4.317 4.317 0 0 0 1.617-1.332l.05.051c-.074.555.047.965.336 1.281.29.313.727.457 1.282.457.168 0 .386-.023.629-.093.242-.051.48-.098.629-.172l.312-1.524c-.113.04-.227.082-.34.121a1.215 1.215 0 0 1-.312.051.563.563 0 0 1-.434-.172c-.121-.117-.172-.312-.172-.601 0-.29.051-.606.121-.918.09-.285.16-.578.22-.871l.796-3.407.242-1.113c.09-.379.14-.77.145-1.16a2.824 2.824 0 0 0-1.375-2.535 4.384 4.384 0 0 0-1.453-.508 9.944 9.944 0 0 0-3.645.094 4.666 4.666 0 0 0-2.875 2.03 4.308 4.308 0 0 0-.629 1.79m.531 5.46c0-.53.145-.94.41-1.23.243-.316.579-.535.993-.703a5.716 5.716 0 0 1 1.351-.34l1.524-.19 1.398-.192c.461-.098.824-.243 1.113-.461h.047c-.14.562-.277 1.125-.41 1.691a3.91 3.91 0 0 1-.676 1.524c-.726 1.086-1.886 1.64-3.504 1.64a2.863 2.863 0 0 1-1.57-.433 1.45 1.45 0 0 1-.676-1.305ZM541.77 27.523l-2.61 12.493h2.028l1.449-6.91a7.85 7.85 0 0 1 .508-1.426c.199-.453.496-.86.87-1.184.4-.43.876-.781 1.403-1.039a3.847 3.847 0 0 1 1.691-.414 2.668 2.668 0 0 1 1.543.437c.414.266.63.723.63 1.305 0 .121 0 .242-.048.434-.035.36-.09.715-.168 1.066-.03.14-.054.29-.074.434l-1.594 7.297h2.051l1.524-7.13c.18-.804.3-1.616.363-2.44 0-1.11-.29-1.934-.871-2.442-.555-.504-1.45-.774-2.61-.774-.859 0-1.71.192-2.488.56-.785.35-1.46.91-1.957 1.616h-.047l.387-1.883ZM557.71 25.273l.532-2.511h-2.078l-.531 2.511h2.078m-2.54 2.25-2.581 12.493h2.027l2.61-12.493ZM560.926 29.336l-2.32 10.68h2.054l2.297-10.68h2.414l.34-1.813h-2.395c.11-.375.2-.753.266-1.136.07-.344.188-.676.34-.992.148-.293.375-.543.652-.723.348-.215.75-.317 1.16-.293.145 0 .29 0 .457.05.172.016.34.04.508.071l.34-1.738a3.644 3.644 0 0 0-3.648.242c-.446.27-.813.652-1.063 1.11a6.165 6.165 0 0 0-.605 1.573 50.04 50.04 0 0 1-.434 1.836h-2.125l-.363 1.813ZM565.613 35.086c0 .75.121 1.45.364 2.102.23.613.582 1.171 1.035 1.644a4.843 4.843 0 0 0 1.644 1.063c.711.27 1.465.398 2.223.386a6.346 6.346 0 0 0 5.098-2.39c.601-.727 1.039-1.598 1.351-2.54.317-.964.461-1.933.461-2.949 0-1.691-.437-2.972-1.328-3.84-.895-.894-2.176-1.332-3.867-1.332a6.522 6.522 0 0 0-5.145 2.395 7.931 7.931 0 0 0-1.379 2.512 9.57 9.57 0 0 0-.457 2.949m2.051-.023a6.721 6.721 0 0 1 1.211-3.965 5.217 5.217 0 0 1 1.496-1.473 3.728 3.728 0 0 1 2.078-.582c.938-.02 1.844.36 2.489 1.043.28.32.488.7.605 1.11.129.449.195.91.191 1.378a6.787 6.787 0 0 1-.312 1.957 6.7 6.7 0 0 1-.895 1.934 5.223 5.223 0 0 1-1.449 1.45 3.378 3.378 0 0 1-1.98.577c-1.137 0-1.98-.312-2.563-.941a3.537 3.537 0 0 1-.87-2.489ZM582.57 22.762l-3.597 17.254H581l3.625-17.254ZM595.422 40.016l3.648-17.254h-2.027l-1.332 6.668h-.047a2.51 2.51 0 0 0-.601-1.04 3.943 3.943 0 0 0-2.106-1.038 5.977 5.977 0 0 0-4.129.605 7.033 7.033 0 0 0-2.176 1.836 8.839 8.839 0 0 0-1.808 5.39 6.48 6.48 0 0 0 .312 2.079c.192.601.516 1.152.942 1.617.437.45.965.805 1.547 1.039a5.672 5.672 0 0 0 2.101.363c.844 0 1.57-.144 2.223-.41a5.003 5.003 0 0 0 1.906-1.644h.05l-.433 1.789h1.93m-8.527-4.832a7.657 7.657 0 0 1 1.257-4.11 5.076 5.076 0 0 1 1.547-1.449 3.961 3.961 0 0 1 2.149-.582c1.015 0 1.789.316 2.32.922.555.64.848 1.469.82 2.32a7.253 7.253 0 0 1-.34 2.078 6.82 6.82 0 0 1-.941 2.004 5.277 5.277 0 0 1-1.52 1.524 3.706 3.706 0 0 1-2.078.601c-1.136 0-1.933-.289-2.464-.89a3.649 3.649 0 0 1-.75-2.418ZM182.98 72.383h5.09c.578 0 .934 0 1.375-.414.551-.469.551-1.102.551-1.156 0-1.07-.992-1.07-1.457-1.07h-9.05c-.579 0-1.762 0-3.22 1.32a8.924 8.924 0 0 0-2.035 2.558c0 .383.332.383.633.383.414 0 .442-.027.688-.328 1.047-1.293 2.86-1.293 3.382-1.293h2.477l-.992 2.914a115.84 115.84 0 0 0-1.07 3.164c-.305.855-.825 2.312-.825 2.617 0 .77.606 1.211 1.293 1.211.192 0 1.594 0 1.868-1.816ZM199.324 59.445c-.113-.215-.23-.425-.5-.425s-.383.171-.52.425l-5.273 10.707c-.136.25-.136.29-.136.348 0 .309.25.48.46.48.27 0 .387-.152.54-.46l4.91-9.957 4.93 9.917c.171.368.25.5.538.5a.47.47 0 0 0 .461-.48c0-.059 0-.098-.132-.348ZM230.324 75.629c.469 0 .965 0 .965-.55 0-.552-.496-.552-.965-.552h-11.66c.328-3.687 3.492-6.328 7.371-6.328h4.29c.468 0 .964 0 .964-.55 0-.551-.496-.551-.965-.551h-4.344a8.201 8.201 0 0 0-8.445 7.98c0 4.402 3.742 7.98 8.445 7.98h4.344c.469 0 .965 0 .965-.55 0-.551-.496-.551-.965-.551h-4.289c-3.879 0-7.043-2.64-7.37-6.328ZM245.852 71.613v-1.21l-1.375-1.43-3.051 2.558.328.328 1.184-.66.714.715c.078 1.727.114 3.45.11 5.176a26.197 26.197 0 0 1-.192 3.273l1.348 2.2 2.281-1.926c-1.402-1.758-1.347-1.567-1.347-2.86v-5.422l1.68-1.156a7.79 7.79 0 0 1 2.886 1.211c.102.906.148 1.817.137 2.727a23.435 23.435 0 0 1-.383 5.554 9.964 9.964 0 0 1 1.484 1.985l2.367-2.012c-1.21-1.566-1.378-1.926-1.378-2.422v-5.996c.578-.383 1.175-.73 1.789-1.047.824.223 2.64.606 2.75 1.348.062.625.09 1.246.082 1.871 0 3.824-.137 4.734-.301 5.89.55.688 1.348 1.649 1.62 2.172l3.47-2.94-.332-.47a3.172 3.172 0 0 1-1.293.715 9.026 9.026 0 0 1-1.016-1.293v-3.328c0-1.57 0-3.137.11-4.707-.993-.273-2.258-.965-3.329-1.539a46.628 46.628 0 0 1-3.55 2.613v-1.074a16.557 16.557 0 0 1-3.297-1.566ZM42.34 67.21 39.152 82h9.567l.289-1.2h-8.18l2.922-13.59ZM53.129 67.21l-.453 2.095h1.3l.458-2.094h-1.305m-.89 4.102L49.96 82h1.285l2.297-10.688ZM62.797 75.91h-6.98c.113-.496.285-.976.519-1.43.227-.44.52-.847.871-1.199.348-.351.754-.64 1.2-.851a3.582 3.582 0 0 1 1.491-.332 2.818 2.818 0 0 1 2.133.808 2.98 2.98 0 0 1 .785 2.176c0 .14-.007.277-.02.414v.414m-7.144 1.098h8.368c.082-.61.117-1.227.101-1.844 0-.621-.082-1.18-.27-1.7a3.442 3.442 0 0 0-.808-1.304 3.35 3.35 0 0 0-1.262-.847A4.455 4.455 0 0 0 60.063 71a5.093 5.093 0 0 0-2.442.582 5.747 5.747 0 0 0-1.824 1.531 6.98 6.98 0 0 0-1.137 2.176 8.383 8.383 0 0 0-.375 2.484c0 1.41.375 2.508 1.098 3.317.746.808 1.824 1.2 3.25 1.2 1.285 0 2.32-.31 3.129-.95.804-.625 1.386-1.555 1.738-2.778h-1.305a3.976 3.976 0 0 1-1.285 1.926 3.464 3.464 0 0 1-2.215.727 3.663 3.663 0 0 1-1.386-.25 3.042 3.042 0 0 1-.973-.703 3.055 3.055 0 0 1-.559-1.078 4.61 4.61 0 0 1-.125-2.176ZM71.781 74.504h1.305a2.94 2.94 0 0 1 .394-1.121c.207-.309.457-.559.766-.746a2.98 2.98 0 0 1 1.016-.414 5.519 5.519 0 0 1 1.945-.063c.254.035.5.113.727.23.218.11.402.274.539.477.16.223.238.492.226.766 0 .703-.105 1.199-.332 1.492-.234.309-.574.52-.953.598a5.802 5.802 0 0 1-1.488.168c-1.117-.008-2.23.16-3.293.496-.422.129-.82.324-1.18.582a2.716 2.716 0 0 0-.832.953 3.196 3.196 0 0 0-.289 1.426c-.012.465.074.922.25 1.347.164.352.402.664.703.91.32.247.688.422 1.078.52a5.276 5.276 0 0 0 3.5-.332c.684-.352 1.2-.828 1.57-1.45l.044.044-.043.289v.289c.023.765.418 1.14 1.14 1.14.371 0 .727-.043 1.078-.105l.184-1.016c-.09.016-.18.028-.27.043h-.246c-.156 0-.308-.02-.457-.062-.144-.063-.226-.188-.226-.371.078-.715.203-1.418.37-2.114a51.5 51.5 0 0 0 .52-2.3c.157-.637.29-1.278.395-1.926.058-.313.082-.621.082-.871a1.785 1.785 0 0 0-.375-1.18 2.684 2.684 0 0 0-.93-.726 4.34 4.34 0 0 0-1.222-.372 6.21 6.21 0 0 0-2.797.102 4.147 4.147 0 0 0-2.38 1.723 4.162 4.162 0 0 0-.519 1.574m6.461 1.781-.414 1.8a4.075 4.075 0 0 1-1.281 2.278 3.735 3.735 0 0 1-2.547.852c-.3 0-.602-.035-.89-.106a2.247 2.247 0 0 1-.77-.332 2.012 2.012 0 0 1-.535-.597 1.965 1.965 0 0 1-.188-.89c0-.563.145-.997.434-1.31.297-.32.664-.562 1.078-.703a4.85 4.85 0 0 1 1.367-.308 31.74 31.74 0 0 1 1.926-.168 5.535 5.535 0 0 0 1.305-.246 1.25 1.25 0 0 0 .476-.313ZM84.21 67.21 81.044 82h1.281l3.192-14.79ZM94.148 80.883l2.032-9.57h-1.203l-.454 2.195h-.043a2.652 2.652 0 0 0-1.261-1.883A4.31 4.31 0 0 0 90.98 71c-.8-.012-1.593.18-2.296.563a5.5 5.5 0 0 0-1.72 1.468 7.387 7.387 0 0 0-1.448 4.39c0 .622.082 1.204.246 1.72.168.507.43.976.765 1.39.344.39.766.703 1.246.91a4.708 4.708 0 0 0 3.79-.164c.68-.355 1.199-.828 1.55-1.472l.043.043c-.094.343-.176.687-.25 1.035a12.966 12.966 0 0 1-.785 2.277 3.504 3.504 0 0 1-1.719 1.719 3.462 3.462 0 0 1-1.43.27 4.69 4.69 0 0 1-1.117-.126 2.61 2.61 0 0 1-.953-.37 2.136 2.136 0 0 1-.683-.727 2.384 2.384 0 0 1-.25-1.137h-1.281c0 .621.12 1.18.351 1.613.203.422.508.785.89 1.059.383.281.821.484 1.282.602a6.495 6.495 0 0 0 1.574.183c.828 0 1.535-.101 2.113-.332a3.71 3.71 0 0 0 1.512-.973c.414-.414.766-.972 1.035-1.656a13.88 13.88 0 0 0 .703-2.402M86.82 77.32a5.761 5.761 0 0 1 1.098-3.5c.371-.52.828-.933 1.344-1.246a3.405 3.405 0 0 1 1.781-.476 3.33 3.33 0 0 1 1.348.25c.718.308 1.246.949 1.406 1.718.113.426.168.868.164 1.305a6.278 6.278 0 0 1-1.137 3.563 4.84 4.84 0 0 1-1.347 1.265 3.38 3.38 0 0 1-3.063.207 2.746 2.746 0 0 1-.91-.726 3.261 3.261 0 0 1-.52-1.075 4.775 4.775 0 0 1-.164-1.285ZM105.395 75.91h-6.98c.108-.496.284-.976.519-1.43.222-.44.515-.847.867-1.199.347-.351.754-.64 1.203-.851a3.564 3.564 0 0 1 1.488-.332c.797-.043 1.57.25 2.133.808.547.59.828 1.375.79 2.176 0 .14-.009.277-.02.414v.414m-7.145 1.098h8.363c.086-.61.121-1.227.106-1.844 0-.621-.082-1.18-.27-1.7a3.491 3.491 0 0 0-.808-1.304 3.38 3.38 0 0 0-1.262-.847A4.468 4.468 0 0 0 102.66 71a5.119 5.119 0 0 0-2.445.582 5.733 5.733 0 0 0-1.82 1.531 6.991 6.991 0 0 0-1.141 2.176 8.379 8.379 0 0 0-.371 2.484c0 1.41.37 2.508 1.097 3.317.747.808 1.82 1.2 3.25 1.2 1.286 0 2.32-.31 3.125-.95.81-.625 1.391-1.555 1.743-2.778h-1.305a3.976 3.976 0 0 1-1.285 1.926 3.464 3.464 0 0 1-2.215.727 3.663 3.663 0 0 1-1.387-.25 3 3 0 0 1-.972-.703 2.993 2.993 0 0 1-.559-1.078 4.61 4.61 0 0 1-.125-2.176ZM110.258 67.21 107.133 82h1.16l.516-2.441h.043c.132.808.578 1.539 1.242 2.027.683.48 1.504.727 2.34.703.91 0 1.718-.207 2.421-.598a5.899 5.899 0 0 0 1.762-1.597 8.364 8.364 0 0 0 1.469-4.637c0-.625-.082-1.223-.25-1.762a3.658 3.658 0 0 0-2.027-2.34 4.117 4.117 0 0 0-1.782-.355 4.045 4.045 0 0 0-3.687 2.2h-.04l1.263-5.99h-1.305m2.008 14.005a3.194 3.194 0 0 1-1.305-.25 2.908 2.908 0 0 1-.91-.703 3.217 3.217 0 0 1-.54-1.016 4.915 4.915 0 0 1-.163-1.285 7.545 7.545 0 0 1 1.097-3.832 5.378 5.378 0 0 1 1.368-1.45 3.219 3.219 0 0 1 1.902-.581c1.078 0 1.867.312 2.34.914a3.71 3.71 0 0 1 .726 2.402 7.489 7.489 0 0 1-1.16 3.895 4.788 4.788 0 0 1-1.406 1.367 3.508 3.508 0 0 1-1.95.539ZM121.297 71.313 119.02 82h1.28l1.204-5.594c.11-.496.27-.98.476-1.449.207-.477.497-.89.829-1.242a3.838 3.838 0 0 1 1.156-.89 3.716 3.716 0 0 1 1.926-.333h.375l.289-1.305a.784.784 0 0 0-.164-.019h-.54a3.646 3.646 0 0 0-2.34.723 5.96 5.96 0 0 0-1.53 1.886h-.043l.539-2.465ZM127.031 74.504h1.305c.05-.399.187-.777.394-1.121.208-.309.454-.559.766-.746a2.96 2.96 0 0 1 1.012-.414c.64-.137 1.3-.157 1.949-.063.25.035.496.113.723.23.218.11.406.274.539.477.16.223.242.492.226.766 0 .703-.101 1.199-.328 1.492-.238.309-.574.52-.953.598a5.813 5.813 0 0 1-1.492.168 10.703 10.703 0 0 0-3.293.496c-.422.129-.82.324-1.18.582a2.745 2.745 0 0 0-.828.953 3.143 3.143 0 0 0-.289 1.426c-.012.465.074.922.25 1.347.16.352.402.664.703.91.32.247.688.422 1.074.52a5.272 5.272 0 0 0 3.5-.332c.684-.352 1.203-.828 1.575-1.45l.043.044-.043.289v.289c.02.765.414 1.14 1.14 1.14a6.07 6.07 0 0 0 1.074-.105l.188-1.016c-.09.016-.18.028-.27.043h-.25c-.152 0-.304-.02-.453-.062-.144-.063-.226-.188-.226-.371.074-.715.199-1.418.37-2.114.192-.761.364-1.53.516-2.3.16-.637.29-1.278.395-1.926.062-.313.082-.621.082-.871a1.803 1.803 0 0 0-.371-1.18 2.697 2.697 0 0 0-.934-.726 4.315 4.315 0 0 0-1.218-.372 6.206 6.206 0 0 0-2.797.102 4.156 4.156 0 0 0-2.383 1.723 4.225 4.225 0 0 0-.516 1.574m6.461 1.781-.414 1.8a4.08 4.08 0 0 1-1.285 2.278 3.729 3.729 0 0 1-2.547.852c-.3 0-.598-.035-.89-.106a2.228 2.228 0 0 1-.766-.332 1.973 1.973 0 0 1-.54-.597 1.962 1.962 0 0 1-.183-.89c0-.563.145-.997.434-1.31a2.59 2.59 0 0 1 1.078-.703c.414-.164.887-.27 1.363-.308.64-.074 1.285-.133 1.926-.168a5.462 5.462 0 0 0 1.305-.246 1.22 1.22 0 0 0 .476-.313ZM190.605 193.797h5.09c.575 0 .934 0 1.375-.414.547-.469.547-1.102.547-1.156 0-1.075-.988-1.075-1.457-1.075h-9.047c-.578 0-1.761 0-3.218 1.32a8.927 8.927 0 0 0-2.036 2.563c0 .383.328.383.633.383.41 0 .438-.027.688-.328 1.043-1.293 2.86-1.293 3.382-1.293h2.477l-.992 2.914c-.375 1.05-.73 2.105-1.074 3.164-.301.855-.825 2.313-.825 2.613 0 .774.606 1.211 1.293 1.211.192 0 1.598 0 1.871-1.812ZM221.75 197.043c.469 0 .96 0 .96-.55 0-.552-.491-.552-.96-.552h-11.664c.332-3.687 3.496-6.328 7.375-6.328h4.289c.469 0 .96 0 .96-.55 0-.551-.491-.551-.96-.551h-4.348a8.208 8.208 0 0 0-5.879 2.234 8.199 8.199 0 0 0-2.562 5.746c0 4.403 3.738 7.98 8.441 7.98h4.348c.469 0 .96 0 .96-.55s-.491-.55-.96-.55h-4.29c-3.878 0-7.042-2.642-7.374-6.329ZM240.023 194.73h.993l4.125 6.383c.273.442.933 1.512 1.238 1.926.191.332.273.332.906.332h3.797c.496 0 .906 0 .906-.496 0-.223-.164-.414-.41-.469-1.02-.219-2.367-2.035-3.027-2.918-.192-.273-1.567-2.09-3.41-5.062 2.449-.438 4.812-1.485 4.812-4.758 0-3.824-4.043-5.148-7.289-5.148h-8.637c-.492 0-.933 0-.933.496 0 .468.523.468.742.468 1.566 0 1.707.192 1.707 1.567v13.789c0 1.375-.14 1.566-1.707 1.566-.219 0-.742 0-.742.469 0 .496.441.496.933.496h7.54c.492 0 .906 0 .906-.496 0-.469-.47-.469-.77-.469-1.57 0-1.68-.219-1.68-1.566v-6.11m5.309-1.347c.77-1.02.856-2.477.856-3.688a6.255 6.255 0 0 0-1.047-3.91c1.129.25 3.851 1.102 3.851 3.883 0 1.789-.824 3.191-3.66 3.715m-5.309-6.414c0-.578 0-1.485 1.707-1.485 2.336 0 3.493.961 3.493 4.211 0 3.547-.852 4.07-5.2 4.07v-6.796m-3.738 15.437c.164-.488.238-1 .219-1.511v-13.899c0-.273 0-1.016-.219-1.512h3.133c-.356.442-.356.993-.356 1.403v14.008c0 .273 0 1.015.22 1.511h-2.997m5.86-7.676.52-.054c.413 0 1.019-.055 1.429-.113.414.664 3.386 5.558 5.668 7.843h-2.668ZM260.875 190.45c-.098.382-.27 1.038-.27 1.136 0 .422.348.613.657.613a.962.962 0 0 0 .75-.422 7.89 7.89 0 0 0 .343-1.195l.426-1.734.328-1.29c.211-.828.211-.867.598-1.464.613-.942 1.578-2.04 3.078-2.04 1.078 0 1.137.887 1.137 1.348 0 1.157-.828 3.293-1.137 4.102-.21.539-.289.715-.289 1.039 0 1.023.848 1.656 1.828 1.656 1.926 0 2.774-2.656 2.774-2.945 0-.25-.25-.25-.309-.25-.27 0-.289.117-.363.328-.446 1.54-1.274 2.328-2.043 2.328-.403 0-.48-.27-.48-.672 0-.445.097-.695.44-1.562a14.105 14.105 0 0 0 1.024-3.715c0-.309 0-1.117-.715-1.676a2.815 2.815 0 0 0-1.789-.52c-1.734 0-2.793 1.137-3.41 1.946-.152-1.637-1.52-1.945-2.5-1.945a4.089 4.089 0 0 0-3.254 1.75c-.137-1.328-1.273-1.75-2.062-1.75-.828 0-1.27.597-1.52 1.039a6.891 6.891 0 0 0-.695 1.906c0 .25.27.25.328.25.27 0 .29-.059.426-.578.289-1.137.652-2.078 1.406-2.078.5 0 .633.422.633.941a8.287 8.287 0 0 1-.309 1.602c-.148.574-.289 1.152-.422 1.73l-.617 2.465a6.892 6.892 0 0 0-.191.793c0 .422.347.613.652.613a.963.963 0 0 0 .754-.422 7.89 7.89 0 0 0 .344-1.195l.426-1.734.328-1.29c.21-.788.25-.94.808-1.734.54-.77 1.442-1.77 2.887-1.77 1.117 0 1.137.981 1.137 1.348a6.747 6.747 0 0 1-.328 1.809ZM80.262 188.164l2.32 14.793h1.637l8.527-14.793h-1.531l-7.578 13.59h-.043l-1.883-13.59ZM98.879 196.863h-6.98c.109-.496.285-.976.519-1.425a4.63 4.63 0 0 1 .867-1.204 4.195 4.195 0 0 1 1.203-.847 3.564 3.564 0 0 1 1.489-.332 2.779 2.779 0 0 1 2.132.808c.547.586.829 1.371.79 2.172 0 .14-.008.278-.02.414v.414m-7.145 1.102h8.364c.086-.613.12-1.23.105-1.844 0-.625-.082-1.184-.27-1.7a3.43 3.43 0 0 0-.808-1.304 3.345 3.345 0 0 0-1.262-.851 4.464 4.464 0 0 0-1.718-.309 5.07 5.07 0 0 0-2.446.578 5.745 5.745 0 0 0-1.82 1.535 6.929 6.929 0 0 0-1.14 2.172 8.385 8.385 0 0 0-.372 2.488c0 1.407.371 2.504 1.098 3.313.746.809 1.82 1.203 3.25 1.203 1.285 0 2.32-.312 3.125-.953.808-.621 1.39-1.555 1.742-2.777h-1.305a3.958 3.958 0 0 1-1.285 1.925 3.441 3.441 0 0 1-2.215.727 3.589 3.589 0 0 1-1.386-.25 2.944 2.944 0 0 1-.973-.703 2.961 2.961 0 0 1-.559-1.078 4.596 4.596 0 0 1-.125-2.172ZM109.602 195.602h1.304c0-.622-.082-1.16-.27-1.618a2.982 2.982 0 0 0-.827-1.136 3.323 3.323 0 0 0-1.282-.664 5.484 5.484 0 0 0-4.058.394c-.711.39-1.332.93-1.824 1.574a8.212 8.212 0 0 0-1.532 4.703c0 1.325.352 2.38 1.055 3.188.727.809 1.742 1.203 3.066 1.203 1.305 0 2.36-.312 3.168-.934.828-.62 1.43-1.574 1.82-2.816h-1.304a4.211 4.211 0 0 1-1.324 1.926 3.321 3.321 0 0 1-2.196.746 3.209 3.209 0 0 1-1.324-.25 2.582 2.582 0 0 1-1.492-1.738 5.234 5.234 0 0 1-.164-1.325c0-.683.082-1.39.27-2.074.207-.683.476-1.304.87-1.863a4.741 4.741 0 0 1 1.426-1.348 3.941 3.941 0 0 1 3.106-.332c.312.102.597.27.828.5.242.215.426.485.539.785.129.344.18.711.145 1.079ZM112.46 192.266l-.25 1.097h1.927l-1.469 7.086a7.34 7.34 0 0 0-.145 1.098c-.011.273.047.543.165.785.105.188.253.344.437.457.195.113.414.184.64.207.684.059 1.368.055 2.051-.02l.227-1.12a9.168 9.168 0 0 1-1.531.124c-.25 0-.414-.082-.54-.226a.941.941 0 0 1-.144-.52l.02-.433.125-.578 1.468-6.86h2.176l.207-1.097h-2.133l.684-3.23h-1.305l-.683 3.23ZM122.504 202.168c-1.098 0-1.906-.313-2.422-.953a3.891 3.891 0 0 1-.789-2.528 6.892 6.892 0 0 1 1.14-3.75 4.505 4.505 0 0 1 1.387-1.343 3.422 3.422 0 0 1 1.907-.54c1.035 0 1.84.31 2.359.93.547.688.824 1.547.785 2.426a7.062 7.062 0 0 1-1.117 3.813 4.693 4.693 0 0 1-1.367 1.406 3.286 3.286 0 0 1-1.883.539m1.45-10.211a5.434 5.434 0 0 0-4.411 2.113 6.664 6.664 0 0 0-1.16 2.196 8.417 8.417 0 0 0-.395 2.547c0 1.347.375 2.421 1.098 3.23.727.809 1.781 1.203 3.168 1.203a5.332 5.332 0 0 0 4.433-2.195 7.014 7.014 0 0 0 1.118-2.281 9.334 9.334 0 0 0 .37-2.63c0-.663-.1-1.242-.308-1.761a3.588 3.588 0 0 0-2.215-2.133 4.77 4.77 0 0 0-1.699-.289ZM131.281 192.266 129 202.957h1.285l1.203-5.594c.11-.5.27-.984.473-1.449.207-.476.5-.89.828-1.246a3.968 3.968 0 0 1 1.16-.89 3.756 3.756 0 0 1 1.926-.333h.375l.29-1.304a.784.784 0 0 0-.165-.02h-.54a3.65 3.65 0 0 0-2.339.727 5.968 5.968 0 0 0-1.535 1.882h-.04l.54-2.464ZM89.941 24.695l.438-1.933H76.46l-.41 1.933h5.797l-3.235 15.32h2.293l3.239-15.32ZM87.066 31.293h2.055c.07-.41.192-.727.41-1.016a3.146 3.146 0 0 1 1.79-1.113 5.758 5.758 0 0 1 2.003-.047c.285.043.567.133.82.266.239.11.446.277.606.484.172.238.254.528.242.82.016.34-.05.68-.195.993a1.143 1.143 0 0 1-.555.554 3.492 3.492 0 0 1-.992.29 60.124 60.124 0 0 0-3.55.386c-.7.086-1.384.274-2.028.559a3.718 3.718 0 0 0-1.524 1.16 3.537 3.537 0 0 0-.578 2.148c0 .653.098 1.211.29 1.645.195.414.476.785.82 1.086.347.281.754.476 1.183.582.489.133.992.195 1.5.191a6.044 6.044 0 0 0 2.559-.457c.64-.304 1.2-.761 1.621-1.332l.047.051c-.074.555.047.965.34 1.281.289.313.722.457 1.277.457.172 0 .387-.023.629-.093.242-.051.484-.098.629-.172l.312-1.524-.336.121a1.217 1.217 0 0 1-.316.051.568.568 0 0 1-.434-.172c-.12-.117-.168-.312-.168-.601 0-.29.047-.606.122-.918.085-.285.16-.578.214-.871l.797-3.407.242-1.113c.094-.379.141-.77.145-1.16a2.816 2.816 0 0 0-1.375-2.535 4.363 4.363 0 0 0-1.45-.508 9.965 9.965 0 0 0-3.648.094 4.666 4.666 0 0 0-2.875 2.03 4.364 4.364 0 0 0-.629 1.79m.532 5.46c0-.53.144-.94.41-1.23.242-.316.582-.535.992-.703.434-.168.89-.28 1.352-.34l1.523-.19 1.402-.192c.457-.098.82-.243 1.11-.461h.047c-.141.562-.278 1.125-.41 1.691a3.91 3.91 0 0 1-.676 1.524c-.723 1.086-1.883 1.64-3.504 1.64a2.872 2.872 0 0 1-1.57-.433 1.45 1.45 0 0 1-.676-1.305ZM100.836 27.523l-2.61 12.493h2.032l1.449-6.91c.121-.485.29-.97.508-1.426.2-.453.496-.86.867-1.184.402-.43.875-.781 1.402-1.039a3.873 3.873 0 0 1 1.692-.414 2.68 2.68 0 0 1 1.547.437c.41.266.629.723.629 1.305 0 .121 0 .242-.051.434-.031.36-.09.715-.168 1.066-.031.14-.055.29-.074.434l-1.594 7.297h2.055l1.523-7.13c.18-.804.3-1.616.36-2.44 0-1.11-.29-1.934-.868-2.442-.558-.504-1.45-.774-2.61-.774-.859 0-1.71.192-2.487.56-.79.35-1.465.91-1.958 1.616h-.046l.382-1.883ZM122.844 38.203l2.246-10.68h-1.93l-.387 2.293h-.05v-.046a2.51 2.51 0 0 0-.532-1.04 4.075 4.075 0 0 0-2.101-1.304 5.337 5.337 0 0 0-4.059.508c-.8.445-1.5 1.054-2.05 1.789a8.52 8.52 0 0 0-1.426 7.297c.191.597.496 1.156.894 1.644.395.457.89.82 1.45 1.063a5.411 5.411 0 0 0 2.05.363c.797 0 1.524-.145 2.2-.438a3.815 3.815 0 0 0 1.69-1.449l.048.05a33.1 33.1 0 0 1-.532 1.813 5.636 5.636 0 0 1-.746 1.618c-.328.468-.757.859-1.257 1.136a3.82 3.82 0 0 1-1.934.434 6.89 6.89 0 0 1-1.133-.094 2.785 2.785 0 0 1-.992-.316 2.003 2.003 0 0 1-.7-.63 2.07 2.07 0 0 1-.316-1.015h-2.027c0 .703.168 1.281.457 1.766.262.484.633.898 1.09 1.207a4.75 4.75 0 0 0 1.543.68c.61.144 1.234.218 1.863.214 1.352 0 2.512-.265 3.453-.796.965-.532 1.692-1.426 2.223-2.684.375-1.11.695-2.238.965-3.383m-8.528-3.262c0-.578.098-1.207.29-1.886.195-.7.484-1.328.847-1.907a5.307 5.307 0 0 1 1.375-1.5 3.168 3.168 0 0 1 1.91-.605c1.086 0 1.883.293 2.39.895.556.664.84 1.507.798 2.37a7.619 7.619 0 0 1-1.11 3.938 4.807 4.807 0 0 1-1.425 1.477 3.45 3.45 0 0 1-2.004.578 3.23 3.23 0 0 1-1.356-.266c-.367-.18-.699-.437-.965-.75a3.215 3.215 0 0 1-.554-1.062 4.196 4.196 0 0 1-.196-1.282ZM127.988 34.387h9.395l.12-.703c.052-.301.075-.61.075-.918a5.955 5.955 0 0 0-1.281-4.082c-.844-.97-2.176-1.454-4.012-1.454a5.613 5.613 0 0 0-2.46.582 6.366 6.366 0 0 0-2.055 1.645 8.476 8.476 0 0 0-1.403 2.559 10.084 10.084 0 0 0-.508 3.265c0 .555.075 1.11.243 1.715.168.594.457 1.145.847 1.617.446.516.996.93 1.617 1.211.82.328 1.704.485 2.586.457.676 0 1.328-.093 1.934-.265a5.195 5.195 0 0 0 3.719-3.914h-2.055a3.677 3.677 0 0 1-1.328 1.789 3.945 3.945 0 0 1-2.27.601c-.41.004-.82-.062-1.207-.191a3.765 3.765 0 0 1-1.039-.578 2.78 2.78 0 0 1-.992-2.25l.074-1.086m7.535-1.813h-7.246c.145-.484.336-.945.578-1.355.243-.434.532-.82.895-1.133a4.338 4.338 0 0 1 2.852-1.043 3.01 3.01 0 0 1 1.425.316c.371.18.688.453.918.797.246.336.414.727.48 1.137.098.418.134.852.098 1.281ZM141.11 27.523l-2.61 12.493h2.027l1.45-6.91a7.85 7.85 0 0 1 .507-1.426c.2-.453.496-.86.871-1.184a4.8 4.8 0 0 1 1.399-1.039 3.873 3.873 0 0 1 1.691-.414c.551-.016 1.09.137 1.547.437.41.266.63.723.63 1.305 0 .121 0 .242-.048.434-.035.36-.09.715-.172 1.066-.027.14-.05.29-.07.434l-1.594 7.297h2.051l1.524-7.13c.18-.804.3-1.616.363-2.44 0-1.11-.293-1.934-.871-2.442-.555-.504-1.45-.774-2.61-.774-.86 0-1.71.192-2.488.56-.785.35-1.46.91-1.957 1.616h-.047l.387-1.883ZM157.367 27.523l.774-3.699h-2.055l-.774 3.7h-2.101l-.387 1.812h2.102l-1.64 7.758c-.079.34-.118.687-.122 1.039 0 .41.07.722.215.988.156.25.36.465.605.629.278.152.582.25.895.29a5.757 5.757 0 0 0 1.812.05l.723-.074.363-1.883a9.913 9.913 0 0 1-.582.168c-.199.031-.398.047-.601.047-.301.007-.594-.051-.871-.168-.243-.121-.364-.364-.364-.676l.028-.41.047-.414 1.546-7.344h2.489l.386-1.813ZM196.613 25.098c.196-.774.305-.938.633-1.02.25-.055 1.156-.055 1.734-.055 2.778 0 4.016.11 4.016 2.254-.039.914-.14 1.825-.3 2.727 0 .164.081.355.327.355.305 0 .36-.218.415-.632l.742-4.786c.03-.156.047-.312.054-.468 0-.305-.273-.305-.742-.305h-15.265c-.66 0-.688.031-.88.55l-1.652 4.845c-.066.16-.12.328-.164.496 0 .164.137.3.328.3.278 0 .305-.136.47-.578 1.483-4.261 2.198-4.758 6.269-4.758h1.074c.77 0 .77.11.77.329-.016.199-.051.39-.11.578l-3.687 14.695c-.247 1.016-.329 1.32-3.27 1.32-.992 0-1.156 0-1.156.524 0 .328.3.328.469.328l2.253-.055 2.336-.027 2.286.027 2.39.055c.277 0 .606 0 .606-.55 0-.302-.22-.302-.934-.302-.688 0-1.047 0-1.762-.054-.797-.082-1.015-.164-1.015-.606 0-.027 0-.164.109-.578ZM206.047 38.957c-3.352 1.637-4.18 3.984-4.18 4.95 0 1.597 1.715 2.406 3.68 2.406 3.504 0 6.332-3.083 6.332-3.446 0-.156-.172-.156-.23-.156-.04 0-.731 0-1.52.906a4.152 4.152 0 0 1-3.215 1.524c-1.176 0-3.254-.446-3.254-2.102 0-1.176 1.211-3.66 4.445-3.754.348 0 .618-.02 1.118-.328.191-.137.636-.445.636-.695 0-.133-.195-.153-.214-.153-2.77-.097-3.715-1.078-3.715-2.156 0-.793.46-1.484.886-1.793a4.704 4.704 0 0 1 3.676-.406c.23.059.715.215.715.848 0 .214-.059.421-.176.597-.054.078-.113.176-.113.25 0 .137.152.156.25.156.539 0 1.828-.714 1.828-1.87 0-1.079-1.176-1.348-2.445-1.348-3.156 0-6.41 2.16-6.41 4.43 0 1.214 1 1.851 1.906 2.14ZM226.395 26.414c.742 3.578 1.953 9.465 3.523 12.656.605 1.184.906 1.79 1.18 1.79.113 0 .168 0 .66-.493 2.094-2.012 3.523-3.605 5.449-5.808l6.023-7.016a95.707 95.707 0 0 0-1.375 11.75c0 .742.028 1.457.11 2.2.027.304.137 1.1 1.293 1.1 1.152 0 3.246-1.21 3.246-1.761 0-.164-.168-.191-.25-.191a2.84 2.84 0 0 0-1.211.441c-.66-.082-.715-.523-.77-1.156-.082-.883-.082-1.707-.082-1.817 0-3.054 1.211-11.39 2.008-14.804l.055-.47c0-.108-.027-.41-.219-.41-.11 0-.137.028-.66.634-2.586 3.136-10.617 12.765-13.34 15.078-.687-1.457-1.183-2.504-2.144-6.356a96.958 96.958 0 0 1-1.953-9.246c-.083-.137-.223-.137-.305-.137-.496 0-1.649.606-1.73 1.184a51.312 51.312 0 0 1-2.81 11.2c-2.198 5.859-2.804 5.859-3.327 5.859a3.596 3.596 0 0 1-1.98-.77c-.138-.137-.192-.137-.247-.137-.387 0-.992 1.239-.992 2.008 0 .246 0 .578.883 1.043.46.238.968.371 1.484.387 1.707 0 3.328-3.934 3.879-5.34 1.293-3.105 2.832-7.453 3.602-11.418Zm0 0"/></svg>